:SAMPLES-PER-SECOND 30
:FULLY-SPECIFIED
:DEGREES
230
root  2.1732 31.225 -11.8553 28.7779 -12.0762 5.39648
RightUpLeg  -3.76573 -11.0306 -8.50948
RightLeg  43.3066 5.20919 -12.0394
RightFoot  18.5355 -3.64972 12.4881
RightToes  5.82077e-011 -3.18055e-015 -2.98177e-016
Spine  36.5435 3.85781 11.4247
Spine1  -8.53882 6.61957 -20.3648
HEad  -38.1438 -15.4234 4.69688
LeftShoulder1  -3.88251e-019 9.70628e-020 -3.87848e-018
LeftArm  6.95075 48.4785 -38.1341
LeftForeArm  24.5847 -16.4255 -4.38864
LeftHand  -1.93055 -10.59 14.5939
RightShoulder  5.73814 10.7794 25.7335
RightArm  13.0614 -16.5711 25.1374
RightForeArm  14.3751 18.6149 -7.86132
RightHand  -0.667751 7.8315 -5.95933
LeftUpLeg  -73.189 -0.685608 -22.6958
LeftLeg  65.8483 -6.41916 19.8217
LeftFoot  -27.697 0.453308 4.11944
LeftToes  1.39127e-010 -3.60802e-011 -7.31315e-011
231
root  2.07893 32.026 -11.43 29.1979 -11.5509 4.87941
RightUpLeg  -6.80622 -11.1472 -7.66711
RightLeg  45.3769 7.02034 -10.8908
RightFoot  20.4994 -3.0336 9.68408
RightToes  5.82077e-011 -3.18055e-015 -2.98177e-016
Spine  34.5606 3.82486 9.90664
Spine1  -10.1314 5.754 -19.967
HEad  -38.9053 -14.779 4.31054
LeftShoulder1  -3.88251e-019 9.70628e-020 -3.87848e-018
LeftArm  4.90964 47.4782 -39.4309
LeftForeArm  24.1735 -16.2671 -4.03711
LeftHand  -1.94315 -10.4768 14.7898
RightShoulder  5.97546 10.7797 26.99
RightArm  21.414 -24.1625 24.0601
RightForeArm  9.42924 20.7128 -10.4144
RightHand  -0.718577 8.14349 -6.2613
LeftUpLeg  -70.5987 -0.610248 -21.6322
LeftLeg  62.4466 -5.52343 18.7414
LeftFoot  -26.9331 0.401815 3.9098
LeftToes  1.39127e-010 -3.60802e-011 -7.31315e-011
232
root  2.00123 32.8471 -11.0164 28.0023 -11.1642 3.74435
RightUpLeg  -9.60715 -10.341 -6.22914
RightLeg  49.2044 6.14646 -13.6105
RightFoot  18.5647 -2.01495 6.76162
RightToes  5.82077e-011 -3.18055e-015 -2.98177e-016
Spine  33.677 3.56113 9.0555
Spine1  -10.9621 5.32509 -19.1052
HEad  -39.4094 -13.5708 4.18438
LeftShoulder1  -3.88251e-019 9.70628e-020 -3.87848e-018
LeftArm  2.97027 46.4911 -41.834
LeftForeArm  21.2307 -17.2336 -3.36042
LeftHand  -1.90737 -10.2347 14.7486
RightShoulder  6.31995 10.8384 28.6864
RightArm  27.0722 -30.2565 22.2023
RightForeArm  6.93438 21.8264 -11.7994
RightHand  -0.740718 7.81848 -6.60637
LeftUpLeg  -66.4612 0.594715 -20.2429
LeftLeg  59.2449 -4.8451 17.5747
LeftFoot  -26.5585 0.379198 3.81941
LeftToes  1.39127e-010 -3.60802e-011 -7.31315e-011
233
root  1.93501 33.6707 -10.5853 25.7643 -10.6453 2.83607
RightUpLeg  -12.2785 -9.61173 -4.90692
RightLeg  53.486 4.14081 -18.9293
RightFoot  13.6536 -0.782622 2.97921
RightToes  5.82077e-011 -3.18055e-015 -2.98177e-016
Spine  33.0109 3.10012 8.00342
Spine1  -10.9609 4.84719 -17.4718
HEad  -39.3938 -11.6683 4.20451
LeftShoulder1  -3.88251e-019 9.70628e-020 -3.87848e-018
LeftArm  2.70059 45.6743 -44.6648
LeftForeArm  16.3439 -19.4592 -2.13845
LeftHand  -1.8603 -10.0852 14.5344
RightShoulder  6.61001 10.8812 30.108
RightArm  31.1722 -35.4795 20.3473
RightForeArm  4.61437 21.943 -11.7551
RightHand  -0.891477 6.83825 -8.51218
LeftUpLeg  -61.1613 2.1327 -19.1862
LeftLeg  55.8722 -4.31883 16.2142
LeftFoot  -26.2427 0.381047 3.92059
LeftToes  1.39127e-010 -3.60802e-011 -7.31315e-011
234
root  1.87675 34.4212 -10.1055 23.3149 -9.66851 2.4154
RightUpLeg  -15.3521 -9.19362 -3.77998
RightLeg  57.5957 3.75984 -22.9491
RightFoot  7.33411 0.0590654 -0.492757
RightToes  5.82077e-011 -3.18055e-015 -2.98177e-016
Spine  31.8001 2.42211 6.59058
Spine1  -10.2558 4.01441 -15.06
HEad  -38.8327 -9.30785 4.03205
LeftShoulder1  -3.88251e-019 9.70628e-020 -3.87848e-018
LeftArm  4.96293 45.0479 -47.8274
LeftForeArm  10.0359 -22.6288 0.228855
LeftHand  -1.83934 -10.1025 14.3599
RightShoulder  6.67083 10.8533 30.4761
RightArm  32.1404 -40.928 19.2242
RightForeArm  3.45464 21.1833 -10.6043
RightHand  -1.17069 6.03521 -11.8532
LeftUpLeg  -55.5934 2.90176 -18.2659
LeftLeg  52.4274 -3.84055 14.9475
LeftFoot  -25.6915 0.376233 4.03539
LeftToes  1.39127e-010 -3.60802e-011 -7.31315e-011
235
root  1.82512 35.0987 -9.53962 20.9758 -8.26318 1.85833
RightUpLeg  -18.8445 -8.74292 -2.25109
RightLeg  60.8807 5.10695 -23.7627
RightFoot  1.42599 0.225304 -1.78294
RightToes  5.82077e-011 -3.18055e-015 -2.98177e-016
Spine  30.1059 1.59343 5.52162
Spine1  -9.06522 3.01956 -12.1671
HEad  -37.7156 -6.95728 3.47437
LeftShoulder1  -3.88251e-019 9.70628e-020 -3.87848e-018
LeftArm  7.74528 44.4723 -51.6241
LeftForeArm  3.20321 -26.0763 3.68467
LeftHand  -1.82389 -10.2013 14.1538
RightShoulder  6.65103 10.7966 30.4879
RightArm  31.0296 -46.249 17.5395
RightForeArm  3.51857 20.607 -9.61295
RightHand  -1.32946 5.49074 -14.0963
LeftUpLeg  -50.0976 2.9844 -16.8763
LeftLeg  49.1779 -3.50113 13.7664
LeftFoot  -25.1452 0.358865 4.0411
LeftToes  1.39127e-010 -3.60802e-011 -7.31315e-011
